<svg width="1547" height="592" viewBox="0 0 1547 592" fill="none" xmlns="http://www.w3.org/2000/svg">
<path d="M124.595 118.877L119.121 122.495C115.781 117.547 111.421 113.651 106.04 110.806C100.721 107.899 94.9382 106.445 88.6914 106.445C78.5482 106.445 69.8893 110.033 62.7148 117.207C55.5404 124.382 51.9531 133.04 51.9531 143.184C51.9531 153.327 55.5404 161.986 62.7148 169.16C69.8893 176.335 78.5482 179.922 88.6914 179.922C94.9382 179.922 100.721 178.468 106.04 175.562C111.421 172.655 115.781 168.727 119.121 163.779L124.502 167.676C120.544 173.49 115.41 178.097 109.102 181.499C102.793 184.901 95.9896 186.602 88.6914 186.602C82.8158 186.602 77.1875 185.457 71.8066 183.169C66.4876 180.881 61.8799 177.788 57.9834 173.892C54.0869 169.995 50.9945 165.387 48.7061 160.068C46.4176 154.688 45.2734 149.059 45.2734 143.184C45.2734 137.308 46.4176 131.711 48.7061 126.392C50.9945 121.011 54.0869 116.372 57.9834 112.476C61.8799 108.579 66.4876 105.487 71.8066 103.198C77.1875 100.91 82.8158 99.7656 88.6914 99.7656C96.0514 99.7656 102.886 101.497 109.194 104.961C115.503 108.363 120.636 113.001 124.595 118.877ZM135.635 111.27L130.068 114.888C125.492 108.208 119.554 102.92 112.256 99.0234C105.02 95.0651 97.1647 93.0859 88.6914 93.0859C79.5996 93.0859 71.2191 95.3434 63.5498 99.8584C55.8805 104.312 49.7884 110.373 45.2734 118.042C40.8203 125.711 38.5938 134.092 38.5938 143.184C38.5938 152.275 40.8203 160.656 45.2734 168.325C49.7884 175.994 55.8805 182.087 63.5498 186.602C71.2191 191.055 79.5996 193.281 88.6914 193.281C97.1647 193.281 105.05 191.302 112.349 187.344C119.647 183.385 125.584 178.035 130.161 171.294L135.635 175.098C130.439 182.767 123.698 188.828 115.41 193.281C107.184 197.734 98.278 199.961 88.6914 199.961C78.4245 199.961 68.9307 197.425 60.21 192.354C51.4893 187.282 44.5931 180.386 39.5215 171.665C34.4499 162.944 31.9141 153.451 31.9141 143.184C31.9141 132.917 34.4499 123.423 39.5215 114.702C44.5931 105.981 51.4893 99.0853 60.21 94.0137C68.9307 88.9421 78.4245 86.4062 88.6914 86.4062C98.278 86.4062 107.184 88.6328 115.41 93.0859C123.698 97.5391 130.439 103.6 135.635 111.27ZM146.768 103.848L141.201 107.466C135.387 98.9307 127.842 92.1891 118.564 87.2412C109.349 82.2314 99.3913 79.7266 88.6914 79.7266C80.0944 79.7266 71.8685 81.3965 64.0137 84.7363C56.1589 88.0762 49.3864 92.5911 43.6963 98.2812C38.068 103.91 33.584 110.651 30.2441 118.506C26.9043 126.361 25.2344 134.587 25.2344 143.184C25.2344 151.781 26.9043 160.007 30.2441 167.861C33.584 175.716 38.068 182.489 43.6963 188.179C49.3864 193.807 56.1589 198.291 64.0137 201.631C71.8685 204.971 80.0944 206.641 88.6914 206.641C99.4531 206.641 109.442 204.136 118.657 199.126C127.873 194.116 135.387 187.344 141.201 178.809L146.582 182.798C140.15 192.199 131.831 199.652 121.626 205.156C111.483 210.599 100.505 213.32 88.6914 213.32C76.0124 213.32 64.292 210.197 53.5303 203.95C42.7686 197.642 34.2334 189.106 27.9248 178.345C21.6781 167.583 18.5547 155.863 18.5547 143.184C18.5547 130.505 21.6781 118.784 27.9248 108.022C34.2334 97.2607 42.7686 88.7565 53.5303 82.5098C64.292 76.2012 76.0124 73.0469 88.6914 73.0469C100.566 73.0469 111.606 75.8301 121.812 81.3965C132.017 86.901 140.335 94.3848 146.768 103.848ZM157.715 96.2402L152.148 99.8584C145.098 89.5296 135.975 81.3656 124.78 75.3662C113.647 69.3669 101.618 66.3672 88.6914 66.3672C78.3008 66.3672 68.3431 68.4082 58.8184 72.4902C49.3555 76.5104 41.1914 81.9531 34.3262 88.8184C27.4609 95.6836 21.9873 103.879 17.9053 113.403C13.8851 122.866 11.875 132.793 11.875 143.184C11.875 153.574 13.8851 163.532 17.9053 173.057C21.9873 182.52 27.4609 190.684 34.3262 197.549C41.1914 204.414 49.3555 209.888 58.8184 213.97C68.3431 217.99 78.3008 220 88.6914 220C101.618 220 113.678 216.969 124.873 210.908C136.068 204.847 145.19 196.652 152.241 186.323L157.622 190.405C149.953 201.538 140.057 210.382 127.935 216.938C115.812 223.433 102.731 226.68 88.6914 226.68C77.373 226.68 66.5495 224.453 56.2207 220C45.9538 215.609 37.0785 209.702 29.5947 202.28C22.1729 194.797 16.2354 185.921 11.7822 175.654C7.39095 165.326 5.19531 154.502 5.19531 143.184C5.19531 131.865 7.39095 121.073 11.7822 110.806C16.2354 100.477 22.1729 91.6016 29.5947 84.1797C37.0785 76.696 45.9538 70.7585 56.2207 66.3672C66.5495 61.9141 77.373 59.6875 88.6914 59.6875C102.793 59.6875 115.905 62.9655 128.027 69.5215C140.15 76.0775 150.046 84.9837 157.715 96.2402ZM236.943 174.912L239.634 168.232H262.456L265.146 174.912H236.943ZM231.748 188.271L234.346 181.592H267.651L270.527 188.271H231.748ZM226.553 201.631L229.15 194.951H272.939L275.723 201.631H226.553ZM172.28 220H165.044L225.811 66.3672H233.047L293.721 220H286.577L229.429 75.3662L172.28 220ZM230.264 91.2305L234.067 99.7656L186.567 220H179.424L230.264 91.2305ZM237.686 108.857L241.211 118.042L201.04 220H193.804L237.686 108.857ZM244.736 127.227L248.262 136.597L215.327 220H208.184L244.736 127.227ZM336.86 220H329.624L268.95 66.3672H276.094L336.86 220ZM261.714 66.3672L322.48 220H315.337L254.57 66.3672H261.714ZM247.334 66.3672L308.101 220H300.864L240.19 66.3672H247.334ZM410.615 126.484H399.39C394.627 126.484 391.195 125.278 389.092 122.866C386.989 120.392 385.938 117.145 385.938 113.125C385.938 104.219 392.586 99.7656 405.884 99.7656C418.377 99.7656 427.778 101.621 434.087 105.332L428.706 109.414C424.377 107.435 416.769 106.445 405.884 106.445C400.565 106.445 396.978 107.033 395.122 108.208C393.328 109.383 392.432 111.022 392.432 113.125C392.432 115.228 392.926 116.867 393.916 118.042C394.906 119.217 396.73 119.805 399.39 119.805H410.894C419.243 119.805 426.758 121.227 433.438 124.072C440.179 126.917 445.715 130.814 450.044 135.762C454.373 140.648 457.682 146.307 459.971 152.739C462.259 159.11 463.403 165.944 463.403 173.242C463.403 179.18 462.568 184.808 460.898 190.127C459.229 195.446 456.693 200.332 453.291 204.785C449.951 209.238 445.9 213.104 441.138 216.382C436.437 219.598 430.809 222.103 424.253 223.896C417.759 225.752 410.708 226.68 403.101 226.68C391.164 226.68 379.969 224.855 369.517 221.206C359.126 217.619 350.467 212.578 343.54 206.084L348.921 202.095C355.229 207.785 363.115 212.207 372.578 215.361C382.103 218.454 392.277 220 403.101 220C411.574 220 419.212 218.794 426.016 216.382C432.881 213.908 438.509 210.537 442.9 206.27C447.354 202.002 450.755 197.054 453.105 191.426C455.518 185.798 456.724 179.736 456.724 173.242C456.724 164.645 454.992 156.883 451.528 149.956C448.065 142.967 442.777 137.308 435.664 132.979C428.613 128.649 420.264 126.484 410.615 126.484ZM399.39 133.164H409.966C422.521 133.164 432.324 136.999 439.375 144.668C446.488 152.337 450.044 161.862 450.044 173.242C450.044 184.808 445.931 194.395 437.705 202.002C429.479 209.548 417.944 213.32 403.101 213.32C393.205 213.32 383.958 211.96 375.361 209.238C366.764 206.517 359.621 202.682 353.931 197.734L359.126 193.56C364.198 197.703 370.568 200.92 378.237 203.208C385.968 205.496 394.256 206.641 403.101 206.641C416.151 206.641 426.108 203.517 432.974 197.271C439.901 191.024 443.364 183.014 443.364 173.242C443.364 163.594 440.457 155.615 434.644 149.307C428.892 142.998 420.635 139.844 409.873 139.844H399.39C390.36 139.844 383.587 137.37 379.072 132.422C374.557 127.474 372.3 121.042 372.3 113.125C372.3 105.208 375.083 98.776 380.649 93.8281C386.278 88.8802 394.689 86.4062 405.884 86.4062C413.739 86.4062 421.037 87.334 427.778 89.1895C434.52 90.9831 440.086 93.5807 444.478 96.9824L439.189 101.064C431.458 95.7454 420.356 93.0859 405.884 93.0859C396.545 93.0859 389.71 94.9414 385.381 98.6523C381.113 102.301 378.979 107.126 378.979 113.125C378.979 119.186 380.557 124.041 383.711 127.69C386.927 131.34 392.153 133.164 399.39 133.164ZM399.39 146.523H409.595C418.625 146.523 425.397 149.028 429.912 154.038C434.427 159.048 436.685 165.449 436.685 173.242C436.685 181.159 433.87 187.591 428.242 192.539C422.676 197.487 414.295 199.961 403.101 199.961C395.246 199.961 387.917 199.064 381.113 197.271C374.372 195.415 368.805 192.786 364.414 189.385L369.702 185.303C377.433 190.622 388.566 193.281 403.101 193.281C412.44 193.281 419.243 191.457 423.511 187.808C427.84 184.097 430.005 179.242 430.005 173.242C430.005 167.243 428.397 162.419 425.181 158.77C421.965 155.059 416.738 153.203 409.502 153.203H399.39C386.711 153.203 376.784 149.43 369.609 141.885C362.497 134.277 358.94 124.691 358.94 113.125C358.94 101.559 363.053 92.0036 371.279 84.458C379.505 76.8506 391.04 73.0469 405.884 73.0469C415.78 73.0469 424.995 74.4076 433.53 77.1289C442.127 79.8503 449.271 83.6849 454.961 88.6328L449.766 92.8076C444.694 88.6637 438.324 85.4476 430.654 83.1592C422.985 80.8708 414.728 79.7266 405.884 79.7266C392.834 79.7266 382.845 82.8499 375.918 89.0967C369.053 95.3434 365.62 103.353 365.62 113.125C365.62 122.835 368.527 130.845 374.341 137.153C380.155 143.4 388.504 146.523 399.39 146.523ZM399.39 159.883H409.595C414.357 159.883 417.79 161.12 419.893 163.594C421.995 166.068 423.047 169.284 423.047 173.242C423.047 182.148 416.398 186.602 403.101 186.602C390.545 186.602 381.113 184.746 374.805 181.035L380.186 176.953C384.515 178.932 392.153 179.922 403.101 179.922C408.42 179.922 411.976 179.334 413.77 178.159C415.625 176.984 416.553 175.345 416.553 173.242C416.553 171.201 416.027 169.593 414.976 168.418C413.986 167.181 412.131 166.562 409.409 166.562H399.39C390.854 166.562 383.123 165.171 376.196 162.388C369.331 159.604 363.672 155.77 359.219 150.884C354.827 145.998 351.457 140.339 349.106 133.906C346.756 127.474 345.581 120.547 345.581 113.125C345.581 107.188 346.416 101.559 348.086 96.2402C349.756 90.9212 352.261 86.0352 355.601 81.582C359.002 77.1289 363.053 73.2943 367.754 70.0781C372.516 66.8001 378.145 64.2643 384.639 62.4707C391.195 60.6152 398.276 59.6875 405.884 59.6875C417.821 59.6875 428.984 61.512 439.375 65.1611C449.766 68.7484 458.424 73.7891 465.352 80.2832L459.971 84.2725C453.662 78.5824 445.776 74.1911 436.313 71.0986C426.851 67.9443 416.707 66.3672 405.884 66.3672C397.41 66.3672 389.741 67.6042 382.876 70.0781C376.073 72.4902 370.444 75.8301 365.991 80.0977C361.6 84.3652 358.198 89.3132 355.786 94.9414C353.436 100.57 352.261 106.631 352.261 113.125C352.261 121.846 354.023 129.701 357.549 136.689C361.074 143.678 366.455 149.307 373.691 153.574C380.928 157.78 389.494 159.883 399.39 159.883ZM511.646 220H504.966V66.3672H511.646V220ZM498.286 220H491.606V66.3672H498.286V220ZM484.927 220H478.247V66.3672H484.927V220ZM525.005 186.602H596.069V193.281H525.005V199.961H596.069V206.641H525.005V213.32H596.069V220H518.325V66.3672H596.069V73.0469H525.005V79.7266H596.069V86.4062H525.005V93.0859H596.069V99.7656H525.005V126.484H561.465V133.164H525.005V139.844H561.465V146.523H525.005V153.203H561.465V159.883H525.005V186.602ZM663.979 142.72L660.64 150.049L620.562 66.3672H627.241L663.979 142.72ZM670.659 128.062L667.227 135.391L633.921 66.3672H640.601L670.659 128.062ZM677.339 113.496L673.999 120.825L647.28 66.3672H653.96L677.339 113.496ZM668.896 168.232L717.231 66.3672H723.911L675.576 168.232V220H668.896V168.232ZM682.256 168.232L730.591 66.3672H737.271L688.936 168.232V220H682.256V168.232ZM695.615 168.232L743.95 66.3672H750.63L702.295 168.232V220H695.615V168.232ZM658.877 161.182L703.872 66.3672H710.552L662.217 168.232V220H655.537V168.232L607.202 66.3672H613.882L658.877 161.182Z" fill="white"/>
<path d="M572.214 459.965L578.894 447.348V516H572.214V459.965ZM585.573 434.359L592.253 421.742V516H585.573V434.359ZM598.933 409.125L605.612 396.415V516H598.933V409.125ZM554.123 456.811L550.319 449.853L596.335 362.367H603.85L554.123 456.811ZM546.423 442.245L542.526 435.194L581.12 362.367H588.728L546.423 442.245ZM501.706 448.09L508.386 460.707V516H501.706V448.09ZM488.347 422.67L495.026 435.287V516H488.347V422.67ZM474.987 397.25L481.667 409.96V516H474.987V397.25ZM528.981 475.922H521.467L468.308 375.077V516H461.628V362.367H469.143L528.981 475.922ZM544.104 475.922H536.496L476.75 362.367H484.357L544.104 475.922ZM612.292 375.077L559.133 475.922H551.525L491.872 362.367H499.387L555.422 468.871L611.364 362.367H618.972V516H612.292V375.077ZM752.565 414.877L747.092 418.495C743.752 413.547 739.392 409.651 734.011 406.806C728.692 403.899 722.909 402.445 716.662 402.445C706.519 402.445 697.86 406.033 690.686 413.207C683.511 420.382 679.924 429.04 679.924 439.184C679.924 449.327 683.511 457.986 690.686 465.16C697.86 472.335 706.519 475.922 716.662 475.922C722.909 475.922 728.692 474.468 734.011 471.562C739.392 468.655 743.752 464.727 747.092 459.779L752.473 463.676C748.514 469.49 743.381 474.097 737.072 477.499C730.764 480.901 723.96 482.602 716.662 482.602C710.786 482.602 705.158 481.457 699.777 479.169C694.458 476.881 689.851 473.788 685.954 469.892C682.058 465.995 678.965 461.387 676.677 456.068C674.388 450.688 673.244 445.059 673.244 439.184C673.244 433.308 674.388 427.711 676.677 422.392C678.965 417.011 682.058 412.372 685.954 408.476C689.851 404.579 694.458 401.487 699.777 399.198C705.158 396.91 710.786 395.766 716.662 395.766C724.022 395.766 730.856 397.497 737.165 400.961C743.474 404.363 748.607 409.001 752.565 414.877ZM763.605 407.27L758.039 410.888C753.462 404.208 747.525 398.92 740.227 395.023C732.99 391.065 725.135 389.086 716.662 389.086C707.57 389.086 699.19 391.343 691.521 395.858C683.851 400.312 677.759 406.373 673.244 414.042C668.791 421.711 666.564 430.092 666.564 439.184C666.564 448.275 668.791 456.656 673.244 464.325C677.759 471.994 683.851 478.087 691.521 482.602C699.19 487.055 707.57 489.281 716.662 489.281C725.135 489.281 733.021 487.302 740.319 483.344C747.618 479.385 753.555 474.035 758.132 467.294L763.605 471.098C758.41 478.767 751.669 484.828 743.381 489.281C735.155 493.734 726.249 495.961 716.662 495.961C706.395 495.961 696.901 493.425 688.181 488.354C679.46 483.282 672.564 476.386 667.492 467.665C662.421 458.944 659.885 449.451 659.885 439.184C659.885 428.917 662.421 419.423 667.492 410.702C672.564 401.981 679.46 395.085 688.181 390.014C696.901 384.942 706.395 382.406 716.662 382.406C726.249 382.406 735.155 384.633 743.381 389.086C751.669 393.539 758.41 399.6 763.605 407.27ZM774.738 399.848L769.172 403.466C763.358 394.931 755.812 388.189 746.535 383.241C737.32 378.231 727.362 375.727 716.662 375.727C708.065 375.727 699.839 377.396 691.984 380.736C684.13 384.076 677.357 388.591 671.667 394.281C666.039 399.91 661.555 406.651 658.215 414.506C654.875 422.361 653.205 430.587 653.205 439.184C653.205 447.781 654.875 456.007 658.215 463.861C661.555 471.716 666.039 478.489 671.667 484.179C677.357 489.807 684.13 494.291 691.984 497.631C699.839 500.971 708.065 502.641 716.662 502.641C727.424 502.641 737.412 500.136 746.628 495.126C755.843 490.116 763.358 483.344 769.172 474.809L774.553 478.798C768.12 488.199 759.802 495.652 749.597 501.156C739.453 506.599 728.475 509.32 716.662 509.32C703.983 509.32 692.263 506.197 681.501 499.95C670.739 493.642 662.204 485.106 655.896 474.345C649.649 463.583 646.525 451.863 646.525 439.184C646.525 426.505 649.649 414.784 655.896 404.022C662.204 393.261 670.739 384.757 681.501 378.51C692.263 372.201 703.983 369.047 716.662 369.047C728.537 369.047 739.577 371.83 749.782 377.396C759.987 382.901 768.306 390.385 774.738 399.848ZM785.686 392.24L780.119 395.858C773.068 385.53 763.946 377.366 752.751 371.366C741.618 365.367 729.589 362.367 716.662 362.367C706.271 362.367 696.314 364.408 686.789 368.49C677.326 372.51 669.162 377.953 662.297 384.818C655.432 391.684 649.958 399.879 645.876 409.403C641.856 418.866 639.846 428.793 639.846 439.184C639.846 449.574 641.856 459.532 645.876 469.057C649.958 478.52 655.432 486.684 662.297 493.549C669.162 500.414 677.326 505.888 686.789 509.97C696.314 513.99 706.271 516 716.662 516C729.589 516 741.649 512.969 752.844 506.908C764.038 500.847 773.161 492.652 780.212 482.323L785.593 486.405C777.924 497.538 768.028 506.382 755.905 512.938C743.783 519.433 730.702 522.68 716.662 522.68C705.344 522.68 694.52 520.453 684.191 516C673.924 511.609 665.049 505.702 657.565 498.28C650.144 490.797 644.206 481.921 639.753 471.654C635.362 461.326 633.166 450.502 633.166 439.184C633.166 427.865 635.362 417.073 639.753 406.806C644.206 396.477 650.144 387.602 657.565 380.18C665.049 372.696 673.924 366.758 684.191 362.367C694.52 357.914 705.344 355.688 716.662 355.688C730.764 355.688 743.876 358.965 755.998 365.521C768.12 372.077 778.016 380.984 785.686 392.24ZM864.914 470.912L867.604 464.232H890.427L893.117 470.912H864.914ZM859.719 484.271L862.316 477.592H895.622L898.498 484.271H859.719ZM854.523 497.631L857.121 490.951H900.91L903.693 497.631H854.523ZM800.251 516H793.015L853.781 362.367H861.018L921.691 516H914.548L857.399 371.366L800.251 516ZM858.234 387.23L862.038 395.766L814.538 516H807.395L858.234 387.23ZM865.656 404.857L869.182 414.042L829.011 516H821.774L865.656 404.857ZM872.707 423.227L876.232 432.597L843.298 516H836.154L872.707 423.227ZM964.831 516H957.595L896.921 362.367H904.064L964.831 516ZM889.685 362.367L950.451 516H943.308L882.541 362.367H889.685ZM875.305 362.367L936.071 516H928.835L868.161 362.367H875.305ZM1026.99 439.555H1067.25C1073.38 439.555 1078.54 437.576 1082.75 433.617C1087.01 429.659 1089.15 424.031 1089.15 416.732C1089.15 411.352 1086.92 406.527 1082.47 402.26C1078.01 397.93 1072.94 395.766 1067.25 395.766H1009.92V516H1003.24V389.086H1067.25C1074.8 389.086 1081.45 391.9 1087.2 397.528C1092.95 403.095 1095.83 409.496 1095.83 416.732C1095.83 425.639 1093.04 432.782 1087.48 438.163C1081.91 443.544 1075.17 446.234 1067.25 446.234H1026.99V439.555ZM1026.99 452.914H1067.25C1076.9 452.914 1085.19 449.543 1092.12 442.802C1099.04 435.998 1102.51 427.309 1102.51 416.732C1102.51 407.641 1098.95 399.662 1091.84 392.797C1084.79 385.87 1076.59 382.406 1067.25 382.406H996.56V516H989.88V375.727H1067.25C1074.61 375.727 1081.51 377.613 1087.94 381.386C1094.44 385.159 1099.6 390.23 1103.43 396.601C1107.27 402.909 1109.19 409.62 1109.19 416.732C1109.19 428.917 1105.04 439.122 1096.75 447.348C1088.53 455.512 1078.69 459.594 1067.25 459.594H1026.99V452.914ZM1026.99 466.273H1067.25C1075.91 466.273 1083.95 464.14 1091.37 459.872C1098.8 455.604 1104.73 449.667 1109.19 442.06C1113.64 434.39 1115.87 425.948 1115.87 416.732C1115.87 408.383 1113.64 400.559 1109.19 393.261C1104.8 385.901 1098.86 380.025 1091.37 375.634C1083.89 371.243 1075.85 369.047 1067.25 369.047H983.2V516H976.521V362.367H1067.25C1076.96 362.367 1086.09 364.872 1094.62 369.882C1103.16 374.83 1109.93 381.509 1114.94 389.921C1120.01 398.271 1122.55 407.208 1122.55 416.732C1122.55 427.742 1120.16 437.421 1115.4 445.771C1110.7 454.12 1104.3 460.645 1096.2 465.346L1113.45 516H1106.4L1089.89 468.5C1087.42 469.49 1085.53 470.17 1084.23 470.541L1099.72 516H1092.67L1077.55 472.118C1076.99 472.242 1075.01 472.458 1071.61 472.768L1085.99 516H1078.94L1064.75 472.953H1058.72L1072.26 516H1065.21L1051.57 472.953H1026.99V466.273ZM1023.28 516H1016.6V402.445H1067.25C1071.4 402.445 1074.95 403.868 1077.92 406.713C1080.95 409.496 1082.47 412.836 1082.47 416.732C1082.47 427.494 1077.4 432.875 1067.25 432.875H1026.99V426.195H1067.25C1069.91 426.195 1071.98 425.515 1073.47 424.154C1075.01 422.732 1075.79 420.258 1075.79 416.732C1075.79 414.568 1074.95 412.774 1073.28 411.352C1071.68 409.867 1069.67 409.125 1067.25 409.125H1023.28V516ZM1176.91 475.922V402.445C1176.91 402.445 1192.1 402.445 1222.46 402.445C1229.82 402.445 1236.13 406.063 1241.39 413.3C1246.71 420.474 1249.37 429.102 1249.37 439.184C1249.37 449.327 1246.71 457.986 1241.39 465.16C1236.13 472.335 1229.82 475.922 1222.46 475.922H1176.91ZM1183.59 469.242H1222.46C1227.97 469.242 1232.67 466.304 1236.56 460.429C1240.52 454.553 1242.5 447.471 1242.5 439.184C1242.5 430.834 1240.52 423.752 1236.56 417.938C1232.67 412.063 1227.97 409.125 1222.46 409.125H1183.59V469.242ZM1170.23 482.602H1222.46C1231.68 482.602 1239.6 478.365 1246.21 469.892C1252.89 461.356 1256.23 451.12 1256.23 439.184C1256.23 431.329 1254.69 424.062 1251.59 417.382C1248.56 410.702 1244.45 405.445 1239.25 401.61C1234.12 397.714 1228.52 395.766 1222.46 395.766H1170.23V482.602ZM1163.55 489.281V389.086H1222.46C1229.7 389.086 1236.44 391.312 1242.69 395.766C1248.93 400.219 1253.88 406.311 1257.53 414.042C1261.24 421.711 1263.1 430.092 1263.1 439.184C1263.1 448.214 1261.24 456.594 1257.53 464.325C1253.88 472.056 1248.93 478.148 1242.69 482.602C1236.44 487.055 1229.7 489.281 1222.46 489.281H1163.55ZM1156.87 495.961H1222.46C1230.94 495.961 1238.79 493.425 1246.03 488.354C1253.33 483.282 1259.14 476.386 1263.47 467.665C1267.8 458.944 1269.96 449.451 1269.96 439.184C1269.96 428.979 1267.8 419.516 1263.47 410.795C1259.14 402.012 1253.33 395.085 1246.03 390.014C1238.73 384.942 1230.87 382.406 1222.46 382.406H1156.87V495.961ZM1150.19 502.641V375.727H1222.46C1232.11 375.727 1241.11 378.572 1249.46 384.262C1257.81 389.89 1264.46 397.59 1269.41 407.362C1274.35 417.134 1276.83 427.742 1276.83 439.184C1276.83 450.626 1274.35 461.233 1269.41 471.005C1264.46 480.777 1257.81 488.508 1249.46 494.198C1241.11 499.826 1232.11 502.641 1222.46 502.641H1150.19ZM1143.51 509.32H1222.46C1230.57 509.32 1238.39 507.465 1245.93 503.754C1253.48 500.043 1260.01 495.064 1265.51 488.817C1271.01 482.571 1275.41 475.118 1278.68 466.459C1282.02 457.738 1283.69 448.646 1283.69 439.184C1283.69 429.721 1282.02 420.66 1278.68 412.001C1275.41 403.342 1271.01 395.889 1265.51 389.643C1260.01 383.334 1253.48 378.324 1245.93 374.613C1238.39 370.902 1230.57 369.047 1222.46 369.047H1143.51V509.32ZM1222.46 516H1136.83V362.367H1222.46C1234.52 362.367 1245.78 365.8 1256.23 372.665C1266.68 379.53 1275 388.869 1281.19 400.683C1287.44 412.496 1290.56 425.329 1290.56 439.184C1290.56 449.574 1288.7 459.532 1284.99 469.057C1281.34 478.52 1276.46 486.684 1270.33 493.549C1264.21 500.414 1256.94 505.888 1248.53 509.97C1240.18 513.99 1231.49 516 1222.46 516ZM1305.31 362.367H1311.99V516H1305.31V362.367ZM1345.39 362.367H1352.07V482.602H1405.5V489.281H1352.07V495.961H1405.5V502.641H1352.07V509.32H1405.5V516H1345.39V362.367ZM1332.03 362.367H1338.71V516H1332.03V362.367ZM1318.67 362.367H1325.35V516H1318.67V362.367ZM1453.75 516H1447.07V362.367H1453.75V516ZM1440.39 516H1433.71V362.367H1440.39V516ZM1427.03 516H1420.35V362.367H1427.03V516ZM1467.11 482.602H1538.17V489.281H1467.11V495.961H1538.17V502.641H1467.11V509.32H1538.17V516H1460.43V362.367H1538.17V369.047H1467.11V375.727H1538.17V382.406H1467.11V389.086H1538.17V395.766H1467.11V422.484H1503.57V429.164H1467.11V435.844H1503.57V442.523H1467.11V449.203H1503.57V455.883H1467.11V482.602Z" fill="white"/>
</svg>
